<svg xmlns="http://www.w3.org/2000/svg" viewBox="0 0 800 600" role="img" aria-label="Body — exploded view exploded diagram"><rect width="800" height="600" fill="#ffffff"/><rect x="6" y="6" width="788" height="588" fill="none" stroke="#9aa3b2" stroke-width="1"/><text x="24" y="34" font-family="sans-serif" font-size="20" font-weight="bold" fill="#2a2f38">Body — exploded view</text><text x="24" y="54" font-family="sans-serif" font-size="13" fill="#9aa3b2">Nissan Navara D40 · YD25</text><g><circle cx="120.0" cy="120.0" r="44.0" fill="none" stroke="#2a2f38" stroke-width="2.5"/><circle cx="120.0" cy="120.0" r="15.4" fill="none" stroke="#2a2f38" stroke-width="2.5"/><circle cx="144.2" cy="120.0" r="5.3" fill="none" stroke="#2a2f38" stroke-width="2.5"/><circle cx="95.8" cy="120.0" r="5.3" fill="none" stroke="#2a2f38" stroke-width="2.5"/><circle cx="120.0" cy="144.2" r="5.3" fill="none" stroke="#2a2f38" stroke-width="2.5"/><circle cx="120.0" cy="95.8" r="5.3" fill="none" stroke="#2a2f38" stroke-width="2.5"/><line x1="120.0" y1="120.0" x2="172.0" y2="76.0" stroke="#9aa3b2" stroke-width="1" stroke-dasharray="4 3"/><circle cx="172.0" cy="76.0" r="13" fill="#fff" stroke="#c8102e" stroke-width="2"/><text x="172.0" y="80.0" text-anchor="middle" font-family="monospace" font-size="12" fill="#2a2f38">01</text><text x="64.0" y="184.0" font-family="sans-serif" font-size="11" fill="#9aa3b2">01 · Front bumper (62022-EB340)</text></g><g><rect x="242.0" y="50.0" width="100.0" height="86.0" rx="6" fill="none" stroke="#2a2f38" stroke-width="2.5"/><line x1="266.0" y1="54.0" x2="266.0" y2="132.0" stroke="#2a2f38" stroke-width="1.5"/><line x1="281.6" y1="54.0" x2="281.6" y2="132.0" stroke="#2a2f38" stroke-width="1.5"/><line x1="297.2" y1="54.0" x2="297.2" y2="132.0" stroke="#2a2f38" stroke-width="1.5"/><line x1="312.8" y1="54.0" x2="312.8" y2="132.0" stroke="#2a2f38" stroke-width="1.5"/><line x1="292.0" y1="93.0" x2="340.0" y2="52.0" stroke="#9aa3b2" stroke-width="1" stroke-dasharray="4 3"/><circle cx="340.0" cy="52.0" r="13" fill="#fff" stroke="#c8102e" stroke-width="2"/><text x="340.0" y="56.0" text-anchor="middle" font-family="monospace" font-size="12" fill="#2a2f38">02</text><text x="240.0" y="154.0" font-family="sans-serif" font-size="11" fill="#9aa3b2">02 · Radiator grille (62310-EB300)</text></g><g><line x1="472.0" y1="135.0" x2="522.0" y2="135.0" stroke="#2a2f38" stroke-width="2"/><line x1="472.0" y1="135.0" x2="507.4" y2="170.4" stroke="#2a2f38" stroke-width="2"/><line x1="472.0" y1="135.0" x2="472.0" y2="185.0" stroke="#2a2f38" stroke-width="2"/><line x1="472.0" y1="135.0" x2="436.6" y2="170.4" stroke="#2a2f38" stroke-width="2"/><line x1="472.0" y1="135.0" x2="422.0" y2="135.0" stroke="#2a2f38" stroke-width="2"/><line x1="472.0" y1="135.0" x2="436.6" y2="99.7" stroke="#2a2f38" stroke-width="2"/><line x1="472.0" y1="135.0" x2="472.0" y2="85.0" stroke="#2a2f38" stroke-width="2"/><line x1="472.0" y1="135.0" x2="507.4" y2="99.7" stroke="#2a2f38" stroke-width="2"/><circle cx="472.0" cy="135.0" r="35.3" fill="#fff" stroke="#2a2f38" stroke-width="2.5"/><circle cx="472.0" cy="135.0" r="11.8" fill="none" stroke="#2a2f38" stroke-width="2.5"/><line x1="472.0" y1="135.0" x2="524.0" y2="88.0" stroke="#9aa3b2" stroke-width="1" stroke-dasharray="4 3"/><circle cx="524.0" cy="88.0" r="13" fill="#fff" stroke="#c8102e" stroke-width="2"/><text x="524.0" y="92.0" text-anchor="middle" font-family="monospace" font-size="12" fill="#2a2f38">03</text><text x="416.0" y="202.0" font-family="sans-serif" font-size="11" fill="#9aa3b2">03 · Front fender RH (63100-EB330)</text></g><g><path d="M 156.0 276.0 C 234.4 276.0 133.6 287.2 212.0 298.5 C 234.4 298.5 133.6 309.8 212.0 321.0 C 234.4 321.0 133.6 332.2 212.0 343.5 C 234.4 343.5 133.6 354.8 212.0 366.0 " fill="none" stroke="#2a2f38" stroke-width="2.5"/><line x1="184.0" y1="321.0" x2="236.0" y2="274.0" stroke="#9aa3b2" stroke-width="1" stroke-dasharray="4 3"/><circle cx="236.0" cy="274.0" r="13" fill="#fff" stroke="#c8102e" stroke-width="2"/><text x="236.0" y="278.0" text-anchor="middle" font-family="monospace" font-size="12" fill="#2a2f38">04</text><text x="128.0" y="388.0" font-family="sans-serif" font-size="11" fill="#9aa3b2">04 · Door mirror RH (96301-EB330)</text></g><g><ellipse cx="372.0" cy="269.3" rx="41.6" ry="13.4" fill="none" stroke="#2a2f38" stroke-width="2.5"/><line x1="330.4" y1="269.3" x2="330.4" y2="330.7" stroke="#2a2f38" stroke-width="2.5"/><line x1="413.6" y1="269.3" x2="413.6" y2="330.7" stroke="#2a2f38" stroke-width="2.5"/><ellipse cx="372.0" cy="330.7" rx="41.6" ry="13.4" fill="none" stroke="#2a2f38" stroke-width="2.5"/><line x1="372.0" y1="300.0" x2="420.0" y2="256.0" stroke="#9aa3b2" stroke-width="1" stroke-dasharray="4 3"/><circle cx="420.0" cy="256.0" r="13" fill="#fff" stroke="#c8102e" stroke-width="2"/><text x="420.0" y="260.0" text-anchor="middle" font-family="monospace" font-size="12" fill="#2a2f38">05</text><text x="320.0" y="364.0" font-family="sans-serif" font-size="11" fill="#9aa3b2">05 · Door handle outer RH (80640-EB300)</text></g><text x="24" y="582" font-family="sans-serif" font-size="10" fill="#9aa3b2">Original placeholder art — Nissan GTR Auto ERP fixture pack (not derived from FAST/Amayama/7zap)</text></svg>